<svg xmlns="http://www.w3.org/2000/svg" viewBox="0 0 58 58"><path fill="#EFEBDE" d="M46 14L32 0H1v58h45"/><path fill="#D5D0BB" d="M11 23h25c.55 0 1-.45 1-1s-.45-1-1-1H11c-.55 0-1 .45-1 1s.45 1 1 1zm0-8h10c.55 0 1-.45 1-1s-.45-1-1-1H11c-.55 0-1 .45-1 1s.45 1 1 1zm25 14H11c-.55 0-1 .45-1 1s.45 1 1 1h25c.55 0 1-.45 1-1s-.45-1-1-1zm0 8H11c-.55 0-1 .45-1 1s.45 1 1 1h25c.55 0 1-.45 1-1s-.45-1-1-1zm0 8H11c-.55 0-1 .45-1 1s.45 1 1 1h25c.55 0 1-.45 1-1s-.45-1-1-1zM32 0v14h14"/><circle cx="46" cy="47" r="11" fill="#76C9B0"/><path fill="#FFF" d="M52 46h-5v-5c0-.55-.45-1-1-1s-1 .45-1 1v6c0 .55.45 1 1 1h6c.55 0 1-.45 1-1s-.45-1-1-1z"/></svg>
